<?xml version="1.0"?>
<!-- Generated by SVGo -->
<svg width="250" height="250"
     xmlns="http://www.w3.org/2000/svg"
     xmlns:xlink="http://www.w3.org/1999/xlink">
<rect x="0" y="0" width="250" height="250" style="fill:white" />
<rect x="3" y="3" width="194" height="44" style="fill:red;stroke:black;stroke-width:1" />
<rect x="0" y="0" width="50" height="50" style="fill:none;stroke:black;stroke-width:1" />
<rect x="50" y="0" width="50" height="50" style="fill:none;stroke:black;stroke-width:1" />
<rect x="100" y="0" width="50" height="50" style="fill:none;stroke:black;stroke-width:1" />
<rect x="150" y="0" width="50" height="50" style="fill:none;stroke:black;stroke-width:1" />
<rect x="200" y="0" width="50" height="50" style="fill:none;stroke:black;stroke-width:1" />
<rect x="250" y="0" width="50" height="50" style="fill:none;stroke:black;stroke-width:1" />
<rect x="0" y="50" width="50" height="50" style="fill:none;stroke:black;stroke-width:1" />
<rect x="50" y="50" width="50" height="50" style="fill:none;stroke:black;stroke-width:1" />
<rect x="100" y="50" width="50" height="50" style="fill:none;stroke:black;stroke-width:1" />
<rect x="150" y="50" width="50" height="50" style="fill:none;stroke:black;stroke-width:1" />
<rect x="200" y="50" width="50" height="50" style="fill:none;stroke:black;stroke-width:1" />
<rect x="250" y="50" width="50" height="50" style="fill:none;stroke:black;stroke-width:1" />
<rect x="0" y="100" width="50" height="50" style="fill:none;stroke:black;stroke-width:1" />
<rect x="50" y="100" width="50" height="50" style="fill:none;stroke:black;stroke-width:1" />
<rect x="100" y="100" width="50" height="50" style="fill:none;stroke:black;stroke-width:1" />
<rect x="150" y="100" width="50" height="50" style="fill:none;stroke:black;stroke-width:1" />
<rect x="200" y="100" width="50" height="50" style="fill:none;stroke:black;stroke-width:1" />
<rect x="250" y="100" width="50" height="50" style="fill:none;stroke:black;stroke-width:1" />
<rect x="0" y="150" width="50" height="50" style="fill:none;stroke:black;stroke-width:1" />
<rect x="50" y="150" width="50" height="50" style="fill:none;stroke:black;stroke-width:1" />
<rect x="100" y="150" width="50" height="50" style="fill:none;stroke:black;stroke-width:1" />
<rect x="150" y="150" width="50" height="50" style="fill:none;stroke:black;stroke-width:1" />
<rect x="200" y="150" width="50" height="50" style="fill:none;stroke:black;stroke-width:1" />
<rect x="250" y="150" width="50" height="50" style="fill:none;stroke:black;stroke-width:1" />
<rect x="0" y="200" width="50" height="50" style="fill:none;stroke:black;stroke-width:1" />
<rect x="50" y="200" width="50" height="50" style="fill:none;stroke:black;stroke-width:1" />
<rect x="100" y="200" width="50" height="50" style="fill:none;stroke:black;stroke-width:1" />
<rect x="150" y="200" width="50" height="50" style="fill:none;stroke:black;stroke-width:1" />
<rect x="200" y="200" width="50" height="50" style="fill:none;stroke:black;stroke-width:1" />
<rect x="250" y="200" width="50" height="50" style="fill:none;stroke:black;stroke-width:1" />
<rect x="0" y="250" width="50" height="50" style="fill:none;stroke:black;stroke-width:1" />
<rect x="50" y="250" width="50" height="50" style="fill:none;stroke:black;stroke-width:1" />
<rect x="100" y="250" width="50" height="50" style="fill:none;stroke:black;stroke-width:1" />
<rect x="150" y="250" width="50" height="50" style="fill:none;stroke:black;stroke-width:1" />
<rect x="200" y="250" width="50" height="50" style="fill:none;stroke:black;stroke-width:1" />
<rect x="250" y="250" width="50" height="50" style="fill:none;stroke:black;stroke-width:1" />
</svg>
